<svg xmlns="http://www.w3.org/2000/svg" width="40" height="40" fill="none" viewBox="0 0 32 32">
  <rect width="14.12" height="14.12" x="1" y="16.88" fill="#86A62C" rx="3.53"/>
  <rect width="14.12" height="14.12" x="16.88" y="1" fill="#86A62C" rx="3.53"/>
  <path fill="#86A62C" fill-rule="evenodd" d="M1.38 2.93C1 3.68 1 4.67 1 6.65v2.82c0 1.98 0 2.97.38 3.72.34.66.88 1.2 1.55 1.54.75.39 1.74.39 3.72.39h2.82c1.98 0 2.97 0 3.72-.39.66-.34 1.2-.88 1.54-1.54.39-.75.39-1.74.39-3.72V6.65c0-1.98 0-2.97-.39-3.72a3.53 3.53 0 0 0-1.54-1.55C12.44 1 11.45 1 9.47 1H6.65c-1.98 0-2.97 0-3.72.38-.67.34-1.2.88-1.55 1.55Zm5.98 8.62 5.73-5.73-1.24-1.25-5.11 5.1-2.47-2.46-1.25 1.25 3.1 3.09c.34.34.9.34 1.24 0ZM16.88 22.53c0-1.98 0-2.97.39-3.72.34-.66.88-1.2 1.54-1.54.75-.39 1.74-.39 3.72-.39h2.82c1.98 0 2.97 0 3.72.39.67.34 1.2.88 1.55 1.54.38.75.38 1.74.38 3.72v2.82c0 1.98 0 2.97-.38 3.72-.34.67-.88 1.2-1.55 1.55-.75.38-1.74.38-3.72.38h-2.82c-1.98 0-2.97 0-3.72-.38a3.53 3.53 0 0 1-1.54-1.55c-.39-.75-.39-1.74-.39-3.72v-2.82Zm6.18.53v-3.09h1.76v3.09h3.1v1.76h-3.1v3.1h-1.76v-3.1h-3.09v-1.76h3.09Z" clip-rule="evenodd"/>
</svg>