<svg xmlns="http://www.w3.org/2000/svg" fill="none" viewBox="0 0 548 72"><rect width="32" height="32" x="2" y="38" fill="#86A62C" rx="8"/><rect width="32" height="32" x="38" y="2" fill="#86A62C" rx="8"/><path fill="#86A62C" fill-rule="evenodd" d="M2.872 6.368C2 8.08 2 10.32 2 14.8v6.4c0 4.48 0 6.72.872 8.432a8 8 0 0 0 3.496 3.496C8.08 34 10.32 34 14.8 34h6.4c4.48 0 6.72 0 8.432-.872a8 8 0 0 0 3.496-3.496C34 27.92 34 25.68 34 21.2v-6.4c0-4.48 0-6.72-.872-8.432a8 8 0 0 0-3.496-3.496C27.92 2 25.68 2 21.2 2h-6.4c-4.48 0-6.72 0-8.432.872a8 8 0 0 0-3.496 3.496Zm13.542 19.546 13-13-2.828-2.828L15 21.672l-5.586-5.586-2.828 2.828 7 7a2 2 0 0 0 2.828 0ZM38 50.8c0-4.48 0-6.72.872-8.432a8 8 0 0 1 3.496-3.496C44.08 38 46.32 38 50.8 38h6.4c4.48 0 6.72 0 8.432.872a8 8 0 0 1 3.496 3.496C70 44.08 70 46.32 70 50.8v6.4c0 4.48 0 6.72-.872 8.432a8 8 0 0 1-3.496 3.496C63.92 70 61.68 70 57.2 70h-6.4c-4.48 0-6.72 0-8.432-.872a8 8 0 0 1-3.496-3.496C38 63.92 38 61.68 38 57.2v-6.4ZM52 52v-7h4v7h7v4h-7v7h-4v-7h-7v-4h7Z" clip-rule="evenodd"/><path fill="#86A62C" d="m545.111 32.715-8.885.97c-.251-.898-.691-1.741-1.32-2.531-.61-.79-1.436-1.427-2.477-1.912-1.041-.484-2.315-.727-3.823-.727-2.029 0-3.734.44-5.116 1.32-1.364.88-2.038 2.019-2.02 3.419-.018 1.203.422 2.18 1.32 2.934.915.754 2.423 1.374 4.523 1.858l7.055 1.508c3.913.843 6.821 2.18 8.724 4.011 1.921 1.831 2.89 4.227 2.908 7.189-.018 2.602-.781 4.9-2.289 6.892-1.49 1.975-3.563 3.518-6.22 4.631-2.656 1.113-5.708 1.67-9.154 1.67-5.063 0-9.137-1.06-12.225-3.178-3.087-2.136-4.927-5.106-5.52-8.911l9.505-.916c.431 1.867 1.346 3.276 2.747 4.227 1.4.952 3.222 1.427 5.466 1.427 2.315 0 4.173-.475 5.573-1.427 1.418-.951 2.127-2.127 2.127-3.527 0-1.184-.457-2.163-1.373-2.934-.897-.772-2.297-1.364-4.2-1.777l-7.055-1.48c-3.967-.827-6.902-2.218-8.805-4.174-1.902-1.974-2.845-4.47-2.827-7.485-.018-2.548.673-4.756 2.073-6.623 1.419-1.884 3.384-3.338 5.897-4.361 2.531-1.041 5.448-1.562 8.751-1.562 4.847 0 8.661 1.032 11.444 3.096 2.8 2.065 4.532 4.856 5.196 8.373Zm-69.146 6.193v24.23h-9.747V21.785h9.317v7.027h.484c.952-2.316 2.469-4.155 4.551-5.52 2.1-1.364 4.694-2.046 7.781-2.046 2.855 0 5.341.61 7.459 1.831 2.136 1.22 3.788 2.988 4.954 5.304 1.185 2.315 1.768 5.124 1.751 8.427v26.33h-9.748V38.316c0-2.764-.718-4.926-2.154-6.488-1.418-1.562-3.384-2.342-5.897-2.342-1.705 0-3.222.377-4.55 1.13-1.31.736-2.343 1.804-3.097 3.204-.736 1.4-1.104 3.096-1.104 5.089Zm-37.837 25.038c-4.039 0-7.539-.888-10.501-2.665-2.962-1.777-5.26-4.263-6.893-7.458-1.616-3.195-2.424-6.928-2.424-11.2 0-4.272.808-8.014 2.424-11.227 1.633-3.213 3.931-5.707 6.893-7.484 2.962-1.777 6.462-2.666 10.501-2.666s7.539.889 10.501 2.666c2.962 1.777 5.251 4.271 6.866 7.484 1.634 3.213 2.45 6.955 2.45 11.227s-.816 8.005-2.45 11.2c-1.615 3.195-3.904 5.68-6.866 7.458-2.962 1.777-6.462 2.665-10.501 2.665Zm.054-7.807c2.19 0 4.021-.602 5.493-1.804 1.472-1.22 2.567-2.854 3.285-4.9.736-2.047 1.104-4.326 1.104-6.839 0-2.53-.368-4.819-1.104-6.865-.718-2.064-1.813-3.707-3.285-4.927-1.472-1.22-3.303-1.83-5.493-1.83-2.244 0-4.111.61-5.601 1.83-1.472 1.22-2.576 2.863-3.312 4.927-.718 2.046-1.077 4.334-1.077 6.865 0 2.513.359 4.793 1.077 6.839.736 2.046 1.84 3.68 3.312 4.9 1.49 1.202 3.357 1.803 5.601 1.803Zm-50.507 7.726c-3.249 0-6.157-.834-8.724-2.504-2.567-1.669-4.595-4.092-6.085-7.269-1.49-3.177-2.235-7.036-2.235-11.577 0-4.595.754-8.471 2.262-11.63 1.525-3.177 3.581-5.574 6.166-7.189 2.585-1.633 5.466-2.45 8.643-2.45 2.423 0 4.416.413 5.978 1.239 1.561.807 2.8 1.785 3.715 2.934.916 1.131 1.625 2.199 2.127 3.204h.404V8h9.774v55.139h-9.585v-6.516h-.593c-.502 1.005-1.229 2.073-2.181 3.204-.951 1.113-2.207 2.064-3.769 2.854-1.562.79-3.528 1.184-5.897 1.184Zm2.72-7.996c2.064 0 3.823-.556 5.277-1.669 1.454-1.13 2.558-2.701 3.312-4.712.754-2.01 1.131-4.352 1.131-7.026 0-2.675-.377-5-1.131-6.974-.736-1.974-1.831-3.508-3.285-4.603-1.436-1.095-3.204-1.643-5.304-1.643-2.172 0-3.986.566-5.44 1.697-1.454 1.13-2.549 2.692-3.284 4.684-.736 1.992-1.104 4.272-1.104 6.839 0 2.584.368 4.89 1.104 6.919.753 2.01 1.857 3.599 3.311 4.765 1.472 1.149 3.276 1.723 5.413 1.723Zm-50.48 7.996c-3.249 0-6.157-.834-8.724-2.504-2.567-1.669-4.595-4.092-6.085-7.269-1.49-3.177-2.235-7.036-2.235-11.577 0-4.595.754-8.471 2.262-11.63 1.525-3.177 3.581-5.574 6.166-7.189 2.585-1.633 5.466-2.45 8.643-2.45 2.423 0 4.416.413 5.978 1.239 1.561.807 2.8 1.785 3.715 2.934.916 1.131 1.625 2.199 2.127 3.204h.404V8h9.774v55.139h-9.585v-6.516h-.593c-.502 1.005-1.229 2.073-2.181 3.204-.951 1.113-2.207 2.064-3.769 2.854-1.562.79-3.527 1.184-5.897 1.184Zm2.72-7.996c2.064 0 3.823-.556 5.277-1.669 1.454-1.13 2.558-2.701 3.312-4.712.754-2.01 1.131-4.352 1.131-7.026 0-2.675-.377-5-1.131-6.974-.736-1.974-1.831-3.508-3.285-4.603-1.436-1.095-3.204-1.643-5.304-1.643-2.172 0-3.986.566-5.44 1.697-1.454 1.13-2.549 2.692-3.284 4.684-.736 1.992-1.104 4.272-1.104 6.839 0 2.584.368 4.89 1.104 6.919.753 2.01 1.857 3.599 3.311 4.765 1.472 1.149 3.276 1.723 5.413 1.723Zm-64.165 7.27h-10.663L287.221 8h12.332l19.441 55.139h-10.663l-14.729-43.831h-.43l-14.702 43.83Zm.35-21.62h29.08v8.023h-29.08V41.52Z"/><path fill="#070707" d="m219.529 63.139-12.601-41.354h6.677l8.94 31.661h.431l8.831-31.661h6.786l8.724 31.553h.431l8.939-31.553h6.678l-12.602 41.353h-6.247l-9.047-31.769h-.646l-9.047 31.77h-6.247ZM183.125 64c-3.734 0-7.01-.888-9.828-2.665-2.8-1.777-4.99-4.263-6.57-7.458-1.561-3.195-2.342-6.928-2.342-11.2 0-4.308.781-8.068 2.342-11.28 1.58-3.214 3.77-5.708 6.57-7.485 2.818-1.777 6.094-2.666 9.828-2.666 3.734 0 7.001.889 9.801 2.666 2.818 1.777 5.008 4.271 6.57 7.484 1.58 3.213 2.37 6.973 2.37 11.281 0 4.272-.79 8.005-2.37 11.2-1.562 3.195-3.752 5.68-6.57 7.458-2.8 1.777-6.067 2.665-9.801 2.665Zm0-5.708c2.836 0 5.17-.727 7.001-2.18 1.831-1.454 3.186-3.366 4.066-5.735.879-2.37 1.319-4.936 1.319-7.7 0-2.764-.44-5.34-1.319-7.727-.88-2.387-2.235-4.317-4.066-5.788-1.831-1.472-4.165-2.208-7.001-2.208-2.836 0-5.17.736-7.001 2.208-1.831 1.471-3.186 3.4-4.065 5.788-.88 2.387-1.32 4.963-1.32 7.727 0 2.764.44 5.33 1.32 7.7.879 2.37 2.234 4.28 4.065 5.735 1.831 1.453 4.165 2.18 7.001 2.18Zm-74.046 4.847L94 8h6.785l11.525 44.908h.538L124.588 8h7.539l11.74 44.908h.538L155.93 8h6.785l-15.078 55.139h-6.893L128.573 19.2h-.431l-12.17 43.939h-6.893Z"/></svg>