<svg width="56" height="56" viewBox="0 0 56 56" fill="none" xmlns="http://www.w3.org/2000/svg">
<path d="M28 56.0029C43.464 56.0029 56 43.4669 56 28.0029C56 12.539 43.464 0.00292969 28 0.00292969C12.536 0.00292969 0 12.539 0 28.0029C0 43.4669 12.536 56.0029 28 56.0029Z" fill="#7FA022"/>
<rect x="13.2969" y="28.8711" width="13.8301" height="13.8301" rx="3.45753" fill="white"/>
<rect x="28.8574" y="13.3125" width="13.8301" height="13.8301" rx="3.45753" fill="white"/>
<path fill-rule="evenodd" clip-rule="evenodd" d="M13.6737 15.2003C13.2969 15.9399 13.2969 16.9081 13.2969 18.8445V21.6106C13.2969 23.547 13.2969 24.5152 13.6737 25.2548C14.0052 25.9053 14.5341 26.4343 15.1847 26.7658C15.9243 27.1426 16.8925 27.1426 18.8289 27.1426H21.5949C23.5313 27.1426 24.4995 27.1426 25.2391 26.7658C25.8897 26.4343 26.4186 25.9053 26.7501 25.2548C27.127 24.5152 27.127 23.547 27.127 21.6106V18.8445C27.127 16.9081 27.127 15.9399 26.7501 15.2003C26.4186 14.5498 25.8897 14.0208 25.2391 13.6893C24.4995 13.3125 23.5313 13.3125 21.5949 13.3125H18.8289C16.8925 13.3125 15.9243 13.3125 15.1847 13.6893C14.5341 14.0208 14.0052 14.5498 13.6737 15.2003ZM19.5266 23.648L25.1451 18.0295L23.9226 16.8071L18.9154 21.8144L16.5012 19.4002L15.2788 20.6227L18.3042 23.648C18.6417 23.9856 19.189 23.9856 19.5266 23.648Z" fill="white"/>
<path fill-rule="evenodd" clip-rule="evenodd" d="M28.8535 34.3963C28.8535 32.4599 28.8535 31.4917 29.2304 30.7521C29.5618 30.1015 30.0908 29.5726 30.7414 29.2411C31.481 28.8643 32.4492 28.8643 34.3856 28.8643H37.1516C39.088 28.8643 40.0562 28.8643 40.7958 29.2411C41.4464 29.5726 41.9753 30.1015 42.3068 30.7521C42.6836 31.4917 42.6836 32.4599 42.6836 34.3963V37.1623C42.6836 39.0987 42.6836 40.0669 42.3068 40.8065C41.9753 41.4571 41.4464 41.986 40.7958 42.3175C40.0562 42.6944 39.088 42.6944 37.1516 42.6944H34.3856C32.4492 42.6944 31.481 42.6944 30.7414 42.3175C30.0908 41.986 29.5618 41.4571 29.2304 40.8065C28.8535 40.0669 28.8535 39.0987 28.8535 37.1623V34.3963ZM34.9042 34.9149V31.8896H36.6329V34.9149H39.6583V36.6437H36.6329V39.669H34.9042V36.6437H31.8789V34.9149H34.9042Z" fill="white"/>
</svg>
